<svg xmlns="http://www.w3.org/2000/svg" version="1.1" xmlns:xlink="http://www.w3.org/1999/xlink" width="512" height="512" x="0" y="0" viewBox="0 0 64 64" style="enable-background:new 0 0 512 512" xml:space="preserve" class="">
    <g>
        <path fill="#559b2d" d="M5 24h48v24H5z" opacity="1" data-original="#559b2d" class=""></path>
        <path fill="#477c24" d="M12 44h34a3 3 0 0 1 3-3V31a3 3 0 0 1-3-3H12a3 3 0 0 1-3 3v10a3 3 0 0 1 3 3z" opacity="1" data-original="#477c24" class=""></path>
        <path fill="#51892c" d="M43 32H9v9a3 3 0 0 1 3 3h34v-9a3 3 0 0 1-3-3z" opacity="1" data-original="#51892c"></path>
        <circle cx="29" cy="36" r="9" fill="#6bc13b" opacity="1" data-original="#6bc13b" class=""></circle>
        <path fill="#477c24" d="M33 34v-1a3 3 0 0 0-3-3v-1h-2v1a3 3 0 0 0-3 3v1a3 3 0 0 0 3 3v3a1 1 0 0 1-1-1v-1h-2v1a3 3 0 0 0 3 3v1h2v-1a3 3 0 0 0 3-3v-1a3 3 0 0 0-3-3v-3a1 1 0 0 1 1 1v1zm-2 4v1a1 1 0 0 1-1 1v-3a1 1 0 0 1 1 1zm-3-3a1 1 0 0 1-1-1v-1a1 1 0 0 1 1-1z" opacity="1" data-original="#477c24" class=""></path>
        <path fill="#fbe1ca" d="M56 58h-8l-6 4-28-7a3 3 0 0 1 3-3h21v-.256a2.12 2.12 0 0 1 .465-1.325L40.8 47.5a4 4 0 0 1 3.122-1.5H56z" opacity="1" data-original="#fbe1ca" class=""></path>
        <path fill="#3b5892" d="M62 60h-6V44h6z" opacity="1" data-original="#3b5892"></path>
        <path fill="#f2b9a1" d="M41.121 55a3.123 3.123 0 0 1-3.116-2.943l2-.114a1.122 1.122 0 0 0 1.913.729l3.379-3.379 1.414 1.414-3.379 3.379a3.142 3.142 0 0 1-2.211.914zM20 24v-4.857L22 20l2 2v2z" opacity="1" data-original="#f2b9a1"></path>
        <path fill="#fbe1ca" d="M27.886 13.857 32 19v5h4v-7L30 5l-9-3H2v10l11 2 2 3 7 3 7.379 7.379a2.12 2.12 0 0 0 1.5.621A2.122 2.122 0 0 0 33 25.879V25.8a2.124 2.124 0 0 0-.525-1.4L26 17z" opacity="1" data-original="#fbe1ca" class=""></path>
    </g>
</svg>