<svg xmlns="http://www.w3.org/2000/svg" version="1.1" xmlns:xlink="http://www.w3.org/1999/xlink" width="512" height="512" x="0" y="0" viewBox="0 0 473 473" style="enable-background:new 0 0 512 512" xml:space="preserve" class="">
    <g>
        <circle cx="234" cy="236.5" r="234" fill="#e6edff" opacity="1" data-original="#e6edff" class=""></circle>
        <path fill="#e56ab9" d="m206.947 33.504 5.81 1.231-6.719 1.906a9.999 9.999 0 0 0-7.035 7.461l-1.246 5.633-1.246-5.633a9.999 9.999 0 0 0-7.035-7.461l-6.719-1.906 5.81-1.231a10 10 0 0 0 7.643-7.417l1.547-6.352 1.547 6.352a10 10 0 0 0 7.643 7.417z" opacity="1" data-original="#e56ab9"></path>
        <path fill="#84f7cd" d="m267.065 263.674-141.313 66.168L14.236 89.71l141.313-66.168z" opacity="1" data-original="#84f7cd" class=""></path>
        <path fill="#7db4ba" d="M146.752 319.842 35.3 79.847 14.236 89.71l111.516 240.132z" opacity="1" data-original="#7db4ba"></path>
        <path fill="#f1f1f1" d="M125.19 143.401c-18.311 8.574-26.233 30.429-17.694 48.815s30.304 26.341 48.614 17.767 26.233-30.429 17.694-48.815c-8.538-18.386-30.303-26.341-48.614-17.767z" opacity="1" data-original="#f1f1f1"></path>
        <path fill="#d5d5d5" d="M127.496 190.216c-8.538-18.386-.616-40.241 17.694-48.815.652-.305 1.31-.584 1.97-.848a36.263 36.263 0 0 0-21.97 2.848c-18.311 8.574-26.232 30.429-17.694 48.815 8.234 17.731 28.769 25.755 46.645 18.615-11.281-2.059-21.43-9.387-26.645-20.615z" opacity="1" data-original="#d5d5d5"></path>
        <path fill="#f1f1f1" d="m182.747 82.109-27.198-58.567L99.17 49.941c18.409 28.659 52.724 41.933 83.577 32.168zM70.616 63.311 14.236 89.71l27.198 58.567c27.282-17.456 39.212-52.384 29.182-84.966z" opacity="1" data-original="#f1f1f1"></path>
        <path fill="#d5d5d5" d="m14.236 89.71 27.198 58.567c7.032-4.499 13.034-10.165 17.913-16.647L35.3 79.847z" opacity="1" data-original="#d5d5d5"></path>
        <path fill="#ffe578" d="M312.989 21.595c-28.332-16.438-64.717-6.412-81.268 22.396s-6.999 65.486 21.333 81.924 64.717 6.412 81.268-22.396c16.551-28.807 7-65.486-21.333-81.924z" opacity="1" data-original="#ffe578" class=""></path>
        <path fill="#eaa192" d="M249.275 54.247c14.813-25.677 45.43-36.401 71.918-26.685a58.32 58.32 0 0 0-8.206-5.749c-28.204-16.297-64.483-6.252-81.033 22.434-16.549 28.687-7.101 65.152 21.102 81.449a58.32 58.32 0 0 0 9.115 4.251c-21.675-18.095-27.716-50.011-12.896-75.7z" opacity="1" data-original="#eaa192" class=""></path>
        <path fill="#ffe578" d="M375.478 101.466c-30.745-11.248-64.843 4.97-76.16 36.226s4.432 65.712 35.176 76.96c30.745 11.248 64.843-4.97 76.16-36.226 11.317-31.255-4.432-65.711-35.176-76.96z" opacity="1" data-original="#ffe578" class=""></path>
        <path fill="#eaa192" d="M318.409 144.708c10.129-27.859 38.419-43.737 66.192-38.768a58.434 58.434 0 0 0-9.08-4.237c-30.605-11.151-64.589 5.04-75.906 36.164-11.316 31.124 4.32 65.396 34.925 76.547a58.396 58.396 0 0 0 9.714 2.604c-24.488-14.056-35.979-44.438-25.845-72.31z" opacity="1" data-original="#eaa192" class=""></path>
        <path fill="#ffffff" d="M397.663 145.425a52.647 52.647 0 0 1 1.591 9.618l.516 7.232a7.09 7.09 0 0 0 7.577 6.568c3.456-.247 6.273-2.951 6.559-6.403a60.17 60.17 0 0 0-4.693-28.767c-1.37-3.183-4.918-4.832-8.269-3.953l-.068.018a7.09 7.09 0 0 0-5.058 8.658z" opacity="1" data-original="#ffffff"></path>
        <path fill="#ffe578" d="M265.01 122.181c-32.573-.011-58.97 26.827-58.959 59.945s26.426 59.974 59 59.986c32.573.011 58.97-26.827 58.959-59.945s-26.426-59.975-59-59.986z" opacity="1" data-original="#ffe578" class=""></path>
        <path fill="#eaa192" d="M226.051 172.125c-.007-19.537 9.182-36.883 23.402-47.826-25.019 6.933-43.411 30.185-43.402 57.826.011 33.118 26.426 59.974 59 59.986 13.358.005 25.672-4.512 35.557-12.119a58.072 58.072 0 0 1-15.557 2.119c-32.573-.011-58.988-26.868-59-59.986z" opacity="1" data-original="#eaa192" class=""></path>
        <path fill="#80d8ff" d="M47.776 206.346h134.981v253.001H47.776z" opacity="1" data-original="#80d8ff"></path>
        <path fill="#8c9eff" d="M67.776 339.346v-133h-20v253.001h134.981v-20h-14.981c-55.229-.001-100-44.772-100-100.001z" opacity="1" data-original="#8c9eff"></path>
        <path fill="#f1f1f1" d="M182.757 206.301H47.776L10 267.723h134.981z" opacity="1" data-original="#f1f1f1"></path>
        <path fill="#d5d5d5" d="m58.744 219.245 7.961-12.944h-18.93L10 267.723h134.981l11.07-18H75.78c-15.644 0-25.231-17.152-17.036-30.478z" opacity="1" data-original="#d5d5d5"></path>
        <path fill="#80d8ff" d="M182.757 206.346h237.241v253.001H182.757z" opacity="1" data-original="#80d8ff"></path>
        <path fill="#8c9eff" d="M182.757 439.346h237.241v20H182.757z" opacity="1" data-original="#8c9eff"></path>
        <path fill="#f1f1f1" d="M419.998 206.346H182.757l37.776 61.377h237.24z" opacity="1" data-original="#f1f1f1"></path>
        <path fill="#d5d5d5" d="m457.773 267.723-37.776-61.377h-19.691l6.705 10.894c8.201 13.325-1.386 30.483-17.033 30.483H208.223l12.309 20z" opacity="1" data-original="#d5d5d5"></path>
        <path fill="#ffffff" d="M257.596 206.346h-14a8 8 0 0 0 0 16h14a8 8 0 0 0 0-16zM322.596 206.346h-34a8 8 0 0 0 0 16h34a8 8 0 0 0 0-16z" opacity="1" data-original="#ffffff"></path>
        <path fill="#e56ab9" d="M443.431 316.504H332.088c-13.148 0-23.807 10.659-23.807 23.807 0 13.148 10.659 23.807 23.807 23.807h111.343c13.148 0 23.807-10.659 23.807-23.807 0-13.148-10.658-23.807-23.807-23.807z" opacity="1" data-original="#e56ab9"></path>
        <path fill="#bd50b6" d="M325.281 317.497c-9.83 2.929-17 12.032-17 22.814 0 13.148 10.659 23.807 23.807 23.807h111.343c10.782 0 19.885-7.17 22.814-17H345.281c-11.046 0-20-8.954-20-20z" opacity="1" data-original="#bd50b6"></path>
        <path fill="#e56ab9" d="M444.193 364.118H332.85c-13.148 0-23.807 10.659-23.807 23.807 0 13.148 10.659 23.807 23.807 23.807h111.343c13.148 0 23.807-10.659 23.807-23.807 0-13.148-10.659-23.807-23.807-23.807z" opacity="1" data-original="#e56ab9"></path>
        <path fill="#bd50b6" d="M326.043 365.111c-9.83 2.929-17 12.032-17 22.814 0 13.148 10.659 23.807 23.807 23.807h111.343c10.782 0 19.885-7.17 22.814-17H346.043c-11.046 0-20-8.954-20-20z" opacity="1" data-original="#bd50b6"></path>
        <path fill="#ffffff" d="M426.998 364.118h-14a8 8 0 0 0 0 16h14a8 8 0 0 0 0-16z" opacity="1" data-original="#ffffff"></path>
        <path fill="#e56ab9" d="M444.193 411.732H332.85c-13.148 0-23.807 10.659-23.807 23.807 0 13.148 10.659 23.807 23.807 23.807h111.343c13.148 0 23.807-10.659 23.807-23.807 0-13.148-10.659-23.807-23.807-23.807z" opacity="1" data-original="#e56ab9"></path>
        <path fill="#bd50b6" d="M326.043 412.725c-9.83 2.929-17 12.032-17 22.814 0 13.148 10.659 23.807 23.807 23.807h111.343c10.782 0 19.885-7.17 22.814-17H346.043c-11.046 0-20-8.954-20-20z" opacity="1" data-original="#bd50b6"></path>
        <ellipse cx="296.643" cy="399.116" fill="#ffe578" rx="59.397" ry="60" opacity="1" data-original="#ffe578" class=""></ellipse>
        <path fill="#eaa192" d="M257.246 389.115c0-19.522 9.235-36.86 23.527-47.817-25.095 7.014-43.527 30.234-43.527 57.817 0 33.137 26.593 60 59.397 60 13.478 0 25.902-4.542 35.87-12.183a58.837 58.837 0 0 1-15.87 2.183c-32.804 0-59.397-26.862-59.397-60z" opacity="1" data-original="#eaa192" class=""></path>
        <path fill="#333333" d="m307.485 54.088-5.974-3.463 3.097-5.385a4.501 4.501 0 0 0-7.803-4.486l-3.186 5.54a16.585 16.585 0 0 0-10.4-.588c-4.361 1.168-8.007 3.977-10.267 7.906-4.639 8.067-1.9 18.405 6.105 23.046l3.413 1.979c3.727 2.16 4.99 6.993 2.816 10.773-2.019 3.694-7.052 5.11-10.656 2.926l-11.561-6.702a4.5 4.5 0 0 0-4.513 7.786l5.974 3.463-3.096 5.385a4.502 4.502 0 0 0 1.658 6.145c2.116 1.227 4.899.516 6.145-1.658l3.179-5.53a16.516 16.516 0 0 0 6.047 1.155c5.959.025 11.686-3.268 14.626-8.484 4.638-8.067 1.899-18.406-6.105-23.046l-3.413-1.979c-3.727-2.161-4.99-6.994-2.816-10.773 2.02-3.693 7.05-5.111 10.656-2.926l11.56 6.702a4.498 4.498 0 0 0 6.149-1.636 4.498 4.498 0 0 0-1.635-6.15zM375.673 134.427l-6.477-2.367 2.117-5.841a4.5 4.5 0 1 0-8.461-3.067l-2.182 6.018c-7.897-1.741-16.466 3.118-19.085 10.805-3.173 8.754 1.314 18.459 10.003 21.635l3.704 1.354c4.04 1.477 6.118 6.014 4.632 10.115-1.351 3.987-6.059 6.271-9.992 4.745l-12.544-4.584a4.5 4.5 0 1 0-3.089 8.453l6.476 2.367-2.117 5.841a4.5 4.5 0 0 0 2.697 5.764c2.274.843 4.92-.338 5.764-2.698l2.178-6.01c1.086.22 2.183.342 3.28.342 6.918.062 13.528-4.576 15.809-11.153 3.173-8.754-1.314-18.46-10.003-21.635l-3.704-1.354c-4.04-1.477-6.118-6.015-4.632-10.115 1.35-3.987 6.061-6.269 9.992-4.745l12.544 4.584a4.5 4.5 0 0 0 3.09-8.454z" opacity="1" data-original="#333333" class=""></path>
        <path fill="#333333" d="M460.391 411.732c7.605-5.191 12.609-13.925 12.609-23.807 0-10.052-5.178-18.912-13.004-24.068 7.397-5.219 12.242-13.825 12.242-23.546 0-15.884-12.923-28.807-28.807-28.807h-18.434v-38.781h32.775c3.791.119 6.347-4.455 4.258-7.621l-37.775-61.377a4.998 4.998 0 0 0-4.258-2.379h-16.566c10.289-11.502 16.554-26.676 16.554-43.287 0-35.841-29.159-65-65-65-3.463 0-6.86.282-10.178.806a64.615 64.615 0 0 0 3.213-20.111c0-35.841-29.159-65-65-65s-65 29.159-65 65c0 19.816 8.925 37.569 22.958 49.491-9.768 4.102-18.324 10.53-24.989 18.578L160.084 21.436c-1.086-2.464-4.238-3.612-6.655-2.422L12.116 85.181a5 5 0 0 0-2.415 6.634l50.844 109.486h-12.77a4.999 4.999 0 0 0-4.259 2.381L5.741 265.104c-2.088 3.166.469 7.738 4.259 7.619h32.775v186.624a5 5 0 0 0 5 5h396.418c15.884 0 28.807-12.922 28.807-28.807 0-9.883-5.004-18.617-12.609-23.808zM463 387.925c0 10.37-8.437 18.807-18.807 18.807h-83.611c1.61-12.898-1.05-26.614-6.839-37.614h90.45c10.37 0 18.807 8.437 18.807 18.807zm-19.568-66.421c10.37 0 18.807 8.437 18.807 18.807s-8.437 18.807-18.807 18.807h-96.084c-8.414-10.843-20.153-18.927-33.663-22.675 1.789-8.521 9.358-14.94 18.403-14.94h111.344zm-26.228-110.158 31.621 51.377H223.327l-31.621-51.377zm-62.218-108.287c30.327 0 55 24.673 55 55 0 17.559-8.279 33.212-21.132 43.287h-60.383a64.768 64.768 0 0 0 2.593-18.141c0-20.602-9.646-38.982-24.646-50.9 9.252-17.379 27.544-29.246 48.568-29.246zM228.022 73.754c0-30.327 24.673-55 55-55s55 24.673 55 55a54.622 54.622 0 0 1-5.143 23.185c-14.859 5.397-27.209 16.07-34.779 29.743a64.58 64.58 0 0 0-32.035-8.477c-4.581 0-9.051.483-13.367 1.389-14.856-9.854-24.676-26.715-24.676-45.84zm38.043 54.451c30.327 0 55 24.673 55 55a54.61 54.61 0 0 1-3.102 18.141H282.25a16.773 16.773 0 0 0 1.471-6.847c0-9.292-7.504-16.853-16.728-16.853h-3.924c-4.261 0-7.728-3.523-7.728-7.853s3.467-7.853 7.728-7.853h13.287a4.5 4.5 0 0 0 0-9h-6.825v-6.161a4.5 4.5 0 0 0-9 0v6.376c-8.02 1.238-14.189 8.216-14.189 16.637 0 9.293 7.504 16.853 16.728 16.853h3.924c4.261 0 7.728 3.522 7.728 7.853a7.855 7.855 0 0 1-3.996 6.847h-56.558a54.61 54.61 0 0 1-3.102-18.141c-.001-30.326 24.672-54.999 54.999-54.999zM153.127 30.197l22.58 48.623c-25.382 5.559-52.463-4.972-69.04-26.868zM20.871 92.124l46.455-21.751c6.037 26.822-3.334 54.412-23.878 70.367zm-1.926 170.599 31.625-51.421h117.561v.044h5.653l-31.598 51.377zm90.513-86.03c0-17.369 14.131-31.5 31.5-31.5s31.5 14.131 31.5 31.5c0 9.957-4.658 18.833-11.895 24.608h-39.211c-7.236-5.775-11.894-14.65-11.894-24.608zm68.299 277.653H52.775V272.723h92.206a4.999 4.999 0 0 0 4.259-2.381l28.517-46.367zm5-253.045h-8.416c5.095-6.89 8.118-15.4 8.118-24.608 0-22.883-18.617-41.5-41.5-41.5s-41.5 18.617-41.5 41.5c0 9.208 3.022 17.718 8.118 24.608H71.572l-23.825-51.304c25.414-18.501 36.894-51.922 28.813-83.948l20.88-9.777c19.256 26.705 51.796 39.47 82.562 31.796l29.406 63.322a64.581 64.581 0 0 0-8.344 31.815 64.66 64.66 0 0 0 2.599 18.141h-20.246a4.989 4.989 0 0 0-.66-.045zm5 253.045V224.009l28.518 46.334a4.999 4.999 0 0 0 4.258 2.379h194.465v38.781h-82.91c-13.905 0-25.526 9.909-28.207 23.033a64.089 64.089 0 0 0-7.238-.422c-35.509 0-64.396 29.159-64.396 65 0 23.292 12.207 43.752 30.495 55.23h-74.985zm54.489-55.23c0-30.327 24.402-55 54.396-55s54.396 24.673 54.396 55-24.402 55-54.396 55-54.396-24.673-54.396-55zm201.947 55.23H332.85c-.715 0-1.42-.045-2.114-.125a65.186 65.186 0 0 0 27.88-37.489h85.577c10.37 0 18.807 8.437 18.807 18.807s-8.437 18.807-18.807 18.807z" opacity="1" data-original="#333333" class=""></path>
        <path fill="#333333" d="M315.434 411.475c0-9.296-7.543-16.859-16.815-16.859h-3.951c-4.31 0-7.815-3.526-7.815-7.859s3.506-7.859 7.815-7.859h13.383a4.5 4.5 0 0 0 0-9h-6.907v-6.167a4.5 4.5 0 0 0-9 0v6.378c-8.076 1.227-14.291 8.214-14.291 16.648 0 9.296 7.543 16.859 16.815 16.859h3.951c4.31 0 7.815 3.525 7.815 7.859s-3.506 7.859-7.815 7.859h-13.383a4.5 4.5 0 0 0 0 9h6.907v6.167a4.5 4.5 0 0 0 9 0v-6.378c8.076-1.228 14.291-8.214 14.291-16.648z" opacity="1" data-original="#333333" class=""></path>
    </g>
</svg>