<svg xmlns="http://www.w3.org/2000/svg" version="1.1" xmlns:xlink="http://www.w3.org/1999/xlink" width="512" height="512" x="0" y="0" viewBox="0 0 512 512" style="enable-background:new 0 0 512 512" xml:space="preserve" class="">
    <g>
        <path fill="#eda1ab" d="M0 188.395c0 87.491 68.96 197.234 219.485 275.351a75.373 75.373 0 0 0 69.416 0c150.525-78.117 219.485-187.86 219.485-275.351 0-73.333-63.248-132.782-141.268-132.782-43.765 0-82.875 18.711-108.786 48.082a5.5 5.5 0 0 1-8.277 0c-25.912-29.37-65.021-48.082-108.786-48.082C63.248 55.613 0 115.062 0 188.395z" opacity="1" data-original="#eda1ab" class=""></path>
        <path fill="#e58996" d="M132.361 55.903C58.494 60.227 0 117.876 0 188.395c0 87.492 68.962 197.237 219.492 275.355 21.727 11.275 47.675 11.275 69.402 0 48.261-25.045 88.123-53.343 120.031-83.114-222.856 9.751-338.749-254.797-276.564-324.733z" opacity="1" data-original="#e58996" class=""></path>
        <path fill="#7ca1dc" d="M503.388 89.41h-38.871a2.14 2.14 0 0 1-2.141-2.141v-38.87a8.612 8.612 0 0 0-8.612-8.612h-32.399a8.612 8.612 0 0 0-8.612 8.612V87.27a2.14 2.14 0 0 1-2.141 2.141h-38.871a8.612 8.612 0 0 0-8.612 8.612v32.399a8.612 8.612 0 0 0 8.612 8.612h38.871a2.14 2.14 0 0 1 2.141 2.141v38.87a8.612 8.612 0 0 0 8.612 8.612h32.399a8.612 8.612 0 0 0 8.612-8.612v-38.87a2.14 2.14 0 0 1 2.141-2.141h38.871a8.612 8.612 0 0 0 8.612-8.612V98.023a8.613 8.613 0 0 0-8.612-8.613z" opacity="1" data-original="#7ca1dc" class=""></path>
        <path fill="#f6ee86" d="M404.852 258.546H356.72a2.651 2.651 0 0 1-2.651-2.651v-48.132c0-5.89-4.775-10.664-10.664-10.664h-40.118c-5.89 0-10.664 4.775-10.664 10.664v48.132a2.651 2.651 0 0 1-2.651 2.651H241.84c-5.89 0-10.664 4.775-10.664 10.664v40.118c0 5.89 4.775 10.664 10.664 10.664h48.132a2.651 2.651 0 0 1 2.651 2.651v48.132c0 5.89 4.775 10.664 10.664 10.664h40.118c5.89 0 10.664-4.775 10.664-10.664v-48.132a2.651 2.651 0 0 1 2.651-2.651h48.132c5.89 0 10.664-4.775 10.664-10.664V269.21c0-5.89-4.775-10.664-10.664-10.664z" opacity="1" data-original="#f6ee86" class=""></path>
        <g fill="#fff">
            <ellipse cx="75.538" cy="202.599" rx="30.797" ry="24.525" fill="#ffffff" opacity="1" data-original="#ffffff"></ellipse>
            <ellipse cx="242.467" cy="202.599" rx="30.797" ry="24.525" fill="#ffffff" opacity="1" data-original="#ffffff"></ellipse>
        </g>
        <g fill="#4e5660">
            <path d="M93.486 186.49a7.5 7.5 0 0 1-7.5-7.5v-12.589c0-4.143 3.358-7.5 7.5-7.5s7.5 3.357 7.5 7.5v12.589a7.5 7.5 0 0 1-7.5 7.5zM224.519 186.49a7.5 7.5 0 0 1-7.5-7.5v-12.589c0-4.143 3.358-7.5 7.5-7.5s7.5 3.357 7.5 7.5v12.589a7.5 7.5 0 0 1-7.5 7.5zM159.003 193.984a30.414 30.414 0 0 1-22.927-10.44 7.5 7.5 0 1 1 11.308-9.855 15.417 15.417 0 0 0 11.619 5.296 15.42 15.42 0 0 0 11.62-5.297 7.501 7.501 0 0 1 11.306 9.857 30.411 30.411 0 0 1-22.926 10.439z" fill="#4e5660" opacity="1" data-original="#4e5660"></path>
        </g>
    </g>
</svg>