<svg xmlns="http://www.w3.org/2000/svg" version="1.1" xmlns:xlink="http://www.w3.org/1999/xlink" width="512" height="512" x="0" y="0" viewBox="0 0 512 512" style="enable-background:new 0 0 512 512" xml:space="preserve" class="">
    <g>
        <path fill="#1d2e79" d="M256.347 21.996C122.38 21.811 12.494 130.27 11.013 264.229c-.709 64.117 23.223 122.631 62.901 166.68l106.43 13.35a568.854 568.854 0 0 0 135.836.692l121.893-14.029c39.113-43.416 62.928-100.886 62.928-163.924.001-135.195-109.503-244.814-244.654-245.002z" opacity="1" data-original="#1d2e79" class=""></path>
        <path fill="#e3379f" d="M369.348 419.369c-28.535 0-51.881 23.346-51.881 51.881v22.478a18.16 18.16 0 0 0 2.825 9.73 243.289 243.289 0 0 0 48.544-18.947V471.25c0-25.963 19.33-47.624 44.309-51.319a51.705 51.705 0 0 0-7.573-.562z" opacity="1" data-original="#e3379f"></path>
        <path fill="#fe3d97" d="M411.919 419.774c-25.568 3.156-45.535 25.09-45.535 51.476v14.52c27.2-13.751 51.486-32.422 71.689-54.848-7.352-5.942-16.334-9.935-26.154-11.148z" opacity="1" data-original="#fe3d97"></path>
        <path fill="#ffc7ab" d="M428.518 373.699c0 24.104-18.382 48.73-41.058 48.73s-41.058-24.626-41.058-48.73S364.784 335.5 387.46 335.5s41.058 14.094 41.058 38.199z" opacity="1" data-original="#ffc7ab"></path>
        <path fill="#1d8df2" d="M388.563 387.636V363.07c0-3.499 1.386-6.683 3.624-9.056a274.45 274.45 0 0 0-4.727-.042c-11.945 0-23.497.765-34.334 2.275-4.733.659-8.302 4.755-8.302 9.527v24.081c0 4.772 3.569 8.867 8.302 9.526 4.379.61 8.874 1.098 13.465 1.463 2.553.203 5.096-.74 6.793-2.658a7.9 7.9 0 0 1 5.923-2.68h11.887c-1.644-2.206-2.631-4.925-2.631-7.87z" opacity="1" data-original="#1d8df2"></path>
        <path fill="#02c0fc" d="M421.795 356.246c-9.733-1.356-20.045-2.106-30.698-2.246-2.245 2.374-3.636 5.564-3.636 9.069v24.566c0 2.945.987 5.664 2.63 7.869h5.524a7.897 7.897 0 0 1 5.922 2.68c1.697 1.918 4.24 2.861 6.793 2.658a229.6 229.6 0 0 0 13.465-1.463c4.733-.659 8.302-4.755 8.302-9.526v-24.081c-.001-4.771-3.57-8.866-8.302-9.526z" opacity="1" data-original="#02c0fc"></path>
        <path fill="#ffc242" d="M106.427 419.369c-12.284 0-23.6 4.335-32.512 11.54a246.436 246.436 0 0 0 32.957 30.471c4.17-21.416 21.62-38.234 43.353-41.449a51.702 51.702 0 0 0-7.572-.562z" opacity="1" data-original="#ffc242"></path>
        <path fill="#fef156" d="M104.764 459.763a244.87 244.87 0 0 0 54.697 32.47V471.25c0-15.39 6.801-29.257 17.536-38.776-7.67-6.8-17.344-11.385-27.999-12.7-21.744 2.685-39.429 18.954-44.234 39.989z" opacity="1" data-original="#fef156" class=""></path>
        <path fill="#fef156" d="M175.771 431.421c-11.442 9.532-18.762 23.861-18.762 39.829v19.91a243.033 243.033 0 0 0 34.699 12.297 18.162 18.162 0 0 0 2.825-9.73V471.25c0-15.968-7.321-30.297-18.762-39.829z" opacity="1" data-original="#fef156" class=""></path>
        <path fill="#ffc7ab" d="M165.597 373.699c0 24.104-18.382 48.73-41.058 48.73s-41.058-24.626-41.058-48.73 18.382-38.199 41.058-38.199 41.058 14.094 41.058 38.199z" opacity="1" data-original="#ffc7ab"></path>
        <path fill="#1d8df2" d="M125.642 387.636V363.07c0-3.499 1.386-6.683 3.624-9.056a274.45 274.45 0 0 0-4.727-.042c-11.945 0-23.497.765-34.334 2.275-4.733.659-8.302 4.755-8.302 9.527v24.081c0 4.772 3.569 8.867 8.302 9.526 4.378.61 8.874 1.098 13.464 1.463 2.553.203 5.096-.74 6.793-2.658a7.9 7.9 0 0 1 5.923-2.68h11.887c-1.643-2.206-2.63-4.925-2.63-7.87z" opacity="1" data-original="#1d8df2"></path>
        <path fill="#02c0fc" d="M158.874 356.246c-9.733-1.356-20.045-2.106-30.699-2.246-2.245 2.374-3.636 5.564-3.636 9.069v24.566c0 2.945.987 5.664 2.63 7.869h5.524a7.9 7.9 0 0 1 5.923 2.68c1.697 1.918 4.24 2.861 6.793 2.658a229.6 229.6 0 0 0 13.465-1.463c4.733-.659 8.302-4.755 8.302-9.526v-24.081c-.001-4.771-3.57-8.866-8.302-9.526z" opacity="1" data-original="#02c0fc"></path>
        <path fill="#8a37ff" d="M192.725 228.791V85.015c0-12.135 5.074-23.035 13.172-30.756-29.263-.841-56.48-2.399-80.488-4.534v214.356c24.009-2.134 51.225-3.692 80.488-4.534-8.098-7.72-13.172-18.621-13.172-30.756z" opacity="1" data-original="#8a37ff" class=""></path>
        <path fill="#9c58fe" d="M203.951 54.205c-8.13 7.724-13.227 18.648-13.227 30.81v143.776c0 12.162 5.096 23.086 13.227 30.81 16.737-.501 34.155-.767 52.049-.767 48.393 0 93.339 1.935 130.591 5.247V49.725c-37.252 3.312-82.198 5.247-130.591 5.247-17.894 0-35.312-.266-52.049-.767z" opacity="1" data-original="#9c58fe"></path>
        <path fill="#ae79fd" d="M22.949 287.4v2c0 9.939 36.18 18.768 92.2 24.35 6.56.654 12.259-4.488 12.259-11.08v-40.763C64.463 267.38 22.949 276.753 22.949 287.4zM115.15.056c-56.021 5.582-92.2 14.411-92.2 24.35v2c0 10.647 41.513 20.021 104.459 25.493V11.136c0-6.592-5.699-11.734-12.259-11.08z" opacity="1" data-original="#ae79fd"></path>
        <path fill="#9c58fe" d="M127.409 263.907V49.899c-62.946-5.473-104.46-14.846-104.46-25.493V289.4c0-10.647 41.514-20.02 104.46-25.493z" opacity="1" data-original="#9c58fe"></path>
        <path fill="#c09afc" d="M396.85.056c-6.56-.654-12.259 4.488-12.259 11.08v40.763c62.946-5.473 104.459-14.847 104.459-25.493v-2c0-9.939-36.179-18.768-92.2-24.35zM384.591 261.907v40.763c0 6.592 5.699 11.734 12.259 11.08 56.021-5.582 92.2-14.411 92.2-24.35v-2c0-10.647-41.513-20.02-104.459-25.493z" opacity="1" data-original="#c09afc"></path>
        <path fill="#ae79fd" d="M384.591 49.899v214.008c62.946 5.473 104.459 14.846 104.459 25.493V24.406c0 10.647-41.513 20.02-104.459 25.493z" opacity="1" data-original="#ae79fd"></path>
        <path fill="#02c0fc" d="M289.116 410.478a66.639 66.639 0 0 0-9.763-.725h-46.706c-36.79 0-66.892 30.101-66.892 66.892v18.194c21.006 8.327 43.439 13.823 66.828 16.041a23.622 23.622 0 0 1-.595-5.254v-28.981c0-33.475 24.923-61.403 57.128-66.167z" opacity="1" data-original="#02c0fc"></path>
        <path fill="#2fd0e2" d="M228.826 476.645v28.981c0 1.69.182 3.336.52 4.925a246.356 246.356 0 0 0 71.785-2.715 23.732 23.732 0 0 1-.105-2.209v-28.981c0-19.843 8.768-37.722 22.61-49.995-9.889-8.768-22.362-14.679-36.1-16.375-32.966 4.07-58.71 32.35-58.71 66.369z" opacity="1" data-original="#2fd0e2"></path>
        <path fill="#3feadd" d="M322.054 425.293c-14.752 12.29-24.191 30.764-24.191 51.353v28.981c0 .937.061 1.86.167 2.768a243.223 243.223 0 0 0 48.214-13.556v-18.194c0-20.588-9.438-39.062-24.19-51.352z" opacity="1" data-original="#3feadd"></path>
        <path fill="#ffc7ab" d="M307.34 352.765c0 30.141-22.986 60.933-51.34 60.933s-51.34-30.793-51.34-60.933C204.66 322.624 227.646 305 256 305s51.34 17.624 51.34 47.765z" opacity="1" data-original="#ffc7ab"></path>
        <path fill="#1d8df2" d="M257.379 370.193v-30.718c0-4.375 1.733-8.357 4.531-11.324a340.86 340.86 0 0 0-5.91-.053c-14.937 0-29.382.957-42.932 2.845-5.918.824-10.381 5.946-10.381 11.912v30.111c0 5.967 4.463 11.088 10.381 11.912a286.349 286.349 0 0 0 16.837 1.829c3.192.254 6.372-.925 8.494-3.323a9.877 9.877 0 0 1 7.406-3.351h14.864c-2.056-2.758-3.29-6.158-3.29-9.84z" opacity="1" data-original="#1d8df2"></path>
        <path fill="#02c0fc" d="M298.932 330.942c-12.17-1.695-25.065-2.633-38.386-2.808-2.807 2.969-4.546 6.957-4.546 11.341v30.718c0 3.683 1.234 7.083 3.289 9.84h6.907a9.878 9.878 0 0 1 7.406 3.351c2.122 2.398 5.302 3.577 8.494 3.323a288.251 288.251 0 0 0 16.837-1.829c5.918-.824 10.381-5.945 10.381-11.912v-30.111c-.001-5.968-4.464-11.089-10.382-11.913z" opacity="1" data-original="#02c0fc"></path>
        <path fill="#fea53d" d="M195.556 163.201v35.679l66.139-7.232v-35.679z" opacity="1" data-original="#fea53d"></path>
        <path fill="#fea53d" d="M261.695 245.737a8.193 8.193 0 0 1-8.193-8.193v-73.382a8.193 8.193 0 1 1 16.386 0v73.382a8.193 8.193 0 0 1-8.193 8.193z" opacity="1" data-original="#fea53d"></path>
        <ellipse cx="243.787" cy="241.4" fill="#ffc242" rx="26.101" ry="22.563" transform="rotate(-9.25 244.624 241.532)" opacity="1" data-original="#ffc242"></ellipse>
        <path fill="#ffc242" d="M195.556 252.968a8.193 8.193 0 0 1-8.193-8.193v-73.382a8.193 8.193 0 1 1 16.386 0v73.382a8.193 8.193 0 0 1-8.193 8.193z" opacity="1" data-original="#ffc242"></path>
        <ellipse cx="177.648" cy="248.631" fill="#fef156" rx="26.101" ry="22.563" transform="rotate(-9.25 178.362 248.869)" opacity="1" data-original="#fef156" class=""></ellipse>
        <path fill="#02c0fc" d="M300.139 36.202v34.709l64.341-7.036V29.167z" opacity="1" data-original="#02c0fc"></path>
        <path fill="#02c0fc" d="M364.48 116.494a7.97 7.97 0 0 1-7.97-7.97V37.137a7.97 7.97 0 0 1 7.97-7.97 7.97 7.97 0 0 1 7.97 7.97v71.387a7.97 7.97 0 0 1-7.97 7.97z" opacity="1" data-original="#02c0fc"></path>
        <ellipse cx="347.059" cy="112.275" fill="#2fd0e2" rx="25.392" ry="21.95" transform="rotate(-9.25 347.932 112.007)" opacity="1" data-original="#2fd0e2"></ellipse>
        <path fill="#2fd0e2" d="M300.139 123.529a7.97 7.97 0 0 1-7.97-7.97V44.172a7.97 7.97 0 0 1 7.97-7.97 7.97 7.97 0 0 1 7.97 7.97v71.388a7.97 7.97 0 0 1-7.97 7.969z" opacity="1" data-original="#2fd0e2"></path>
        <ellipse cx="282.717" cy="119.31" fill="#3feadd" rx="25.392" ry="21.95" transform="rotate(-9.25 283.446 119.14)" opacity="1" data-original="#3feadd"></ellipse>
        <circle cx="328.335" cy="190.897" r="13.473" fill="#fef156" opacity="1" data-original="#fef156" class=""></circle>
        <circle cx="194.059" cy="119.338" r="11.838" fill="#02c0fc" transform="rotate(-80.73 194.096 119.324)" opacity="1" data-original="#02c0fc"></circle>
        <path fill="#fef156" d="m224.886 57.48-11.015 7.919a4.382 4.382 0 0 1-6.115-1L184.56 32.134a4.382 4.382 0 0 1 1-6.115l11.015-7.919a4.382 4.382 0 0 1 6.115 1l23.196 32.265a4.381 4.381 0 0 1-1 6.115z" opacity="1" data-original="#fef156" class=""></path>
        <path fill="#3feadd" d="m318.867 287.805-8.628-10.469a4.38 4.38 0 0 1 .594-6.167l30.665-25.273a4.38 4.38 0 0 1 6.167.594l8.628 10.469a4.38 4.38 0 0 1-.595 6.167L325.034 288.4a4.381 4.381 0 0 1-6.167-.595z" opacity="1" data-original="#3feadd"></path>
    </g>
</svg>