<svg xmlns="http://www.w3.org/2000/svg" version="1.1" xmlns:xlink="http://www.w3.org/1999/xlink" width="512" height="512" x="0" y="0" viewBox="0 0 512 512" style="enable-background:new 0 0 512 512" xml:space="preserve" class="">
    <g>
        <path fill="#fe9901" d="M121.345 317.105c-11.772.156-23.517 2.801-34.342 7.961-16.096 7.673-34.15 10.243-51.664 6.896l-7.852-1.5c-2.779-.531-5.217 1.908-4.686 4.686L24.302 343c3.347 17.514.777 35.568-6.896 51.664-14.532 30.486-9.221 68.268 15.933 93.422 23.686 23.686 58.562 29.761 88.007 18.259v-189.24z" opacity="1" data-original="#fe9901"></path>
        <path fill="#fb8801" d="M121.345 348.458c-17.365-9.363-34.822-12.831-48.358-9.376-11.309 2.886-25.21 1.303-39.871-4.897l-6.573-2.78c-2.326-.984-3.782.473-2.799 2.799l2.78 6.573c6.2 14.661 7.783 28.562 4.897 39.871-5.466 21.42 6.384 52.662 31.538 77.816 18.284 18.284 39.778 29.521 58.385 32.206V348.458z" opacity="1" data-original="#fb8801" class=""></path>
        <path fill="#fe9901" d="M121.345 399.615c-25.074-25.034-49.75-43.236-62.187-46.704-6.587-1.837-16.389-7.518-28.235-16.533l-5.311-4.042c-1.879-1.43-2.367-.943-.937.937l4.042 5.311c9.015 11.846 14.696 21.649 16.533 28.235 3.479 12.475 21.781 37.266 46.935 62.419 10.031 10.031 20.002 18.969 29.159 26.315v-55.938z" opacity="1" data-original="#fe9901"></path>
        <g fill="#0ed290">
            <path d="M122.775 52.974a35.048 35.048 0 0 1 11.819-4.224l1.236-41.023a7.502 7.502 0 0 0-7.271-7.723 7.467 7.467 0 0 0-7.723 7.271l-1.435 47.646zM112.376 58.978l3.374-1.948-41.98-22.581a7.5 7.5 0 0 0-7.105 13.211l36.129 19.432a35.029 35.029 0 0 1 9.582-8.114z" fill="#0ed290" opacity="1" data-original="#0ed290" class=""></path>
        </g>
        <path fill="#00c285" d="m112.376 58.978 10.399-6.004a35.537 35.537 0 0 1 4.206-2.068l-13.695-37.648c-1.415-3.893-5.721-5.907-9.611-4.484a7.499 7.499 0 0 0-4.484 9.611l5.648 15.53-10.625-12.658c-2.663-3.171-7.395-3.585-10.566-.922s-3.585 7.394-.922 10.566l25.762 30.691a35.289 35.289 0 0 1 3.888-2.614z" opacity="1" data-original="#00c285"></path>
        <path fill="#fe9901" d="M135.076 149.322a21.776 21.776 0 0 1 3.213-.211c5.92 0 12.015 1.529 17.624 4.423a2.063 2.063 0 0 0 3.023-1.759c.448-11.467 4.323-22.068 10.855-30.243-.234-10.324 3.975-20.606 12.318-27.95l.771-.679-.698-.753a36.56 36.56 0 0 1-2.75-3.323c-4.967-6.811-7.362-14.95-6.912-23.254-5.359-8.035-13.201-13.778-22.005-16.65-9.397-3.066-19.678-1.758-28.239 3.184l-10.4 6.005c-8.561 4.942-14.834 13.192-16.877 22.863-2.588 12.248.228 25.602 9.138 36.08l30.828 36.253a34.17 34.17 0 0 1 .111-3.986z" opacity="1" data-original="#fe9901"></path>
        <path fill="#fb8801" d="M135.076 149.322a21.776 21.776 0 0 1 3.213-.211c5.92 0 12.015 1.529 17.624 4.423a2.063 2.063 0 0 0 3.023-1.759c.273-6.992 1.831-13.658 4.474-19.656l-30.376-35.723c-8.91-10.478-11.726-23.832-9.138-36.08.836-3.955 2.389-7.665 4.506-11.016a36.297 36.297 0 0 0-6.127 2.806l-10.4 6.005c-8.56 4.942-14.834 13.192-16.877 22.863-2.588 12.248.228 25.602 9.138 36.08l30.828 36.253a34.38 34.38 0 0 1 .112-3.985z" opacity="1" data-original="#fb8801" class=""></path>
        <path fill="#a2e62e" d="M168.897 122.681c2.147-2.87 4.601-5.472 7.351-7.726 10.517 8.545 16.826 21.966 17.406 36.82a2.064 2.064 0 0 0 3.024 1.759c5.608-2.894 11.703-4.423 17.624-4.423 1.055 0 2.114.049 3.148.146.733 7.222-.874 14.638-4.583 21.514-.349.646-.333 1.405.042 2.033a2.031 2.031 0 0 0 2.155.964 45.554 45.554 0 0 1 8.648-.843c1.397 0 2.799.068 4.166.204.497 4.413.241 8.911-.692 13.437l-.652 3.162 2.325-2.239c8.312-8.005 19.243-12.413 30.781-12.413l.194.004h.914l.082-.91c2.073-23.013 21.079-40.367 44.21-40.367a44.366 44.366 0 0 1 22.379 6.058l1.95 1.141-8.358-39.554a37.462 37.462 0 0 0-1.182-1.728c-5.672-7.778-13.792-12.714-22.53-14.524.947-8.873-1.271-18.113-6.943-25.891-11.435-15.68-32.815-19.808-49.155-10.05a37.571 37.571 0 0 0-2.387-3.733c-12.121-16.622-35.422-20.27-52.044-8.148-16.621 12.122-20.27 35.422-8.148 52.044a37.445 37.445 0 0 0 2.824 3.414c-8.749 7.703-13.107 18.801-12.549 29.849z" opacity="1" data-original="#a2e62e" class=""></path>
        <path fill="#97d729" d="M168.897 122.681c2.147-2.87 4.601-5.472 7.351-7.726 10.517 8.545 16.826 21.966 17.406 36.82a2.064 2.064 0 0 0 3.024 1.759c5.608-2.894 11.703-4.423 17.624-4.423 1.055 0 2.114.049 3.148.146.733 7.222-.874 14.638-4.583 21.514-.349.646-.333 1.405.042 2.033a2.031 2.031 0 0 0 2.155.964 45.554 45.554 0 0 1 8.648-.843c1.397 0 2.799.068 4.166.204.497 4.413.241 8.911-.692 13.437l-.652 3.162 2.325-2.239a44.309 44.309 0 0 1 13.917-9.095 37.159 37.159 0 0 1-2.548-18.021c-8.738-1.81-16.858-6.746-22.53-14.524-11.435-15.68-8.83-37.299 5.454-49.875a37.581 37.581 0 0 1-2.824-3.414c-12.121-16.621-8.473-39.922 8.148-52.043a37.803 37.803 0 0 1 3.414-2.212c-12.793-10.176-31.272-11.032-45.12-.933-16.622 12.121-20.27 35.422-8.148 52.044a37.445 37.445 0 0 0 2.824 3.414c-8.749 7.705-13.107 18.803-12.549 29.851z" opacity="1" data-original="#97d729" class=""></path>
        <path fill="#8bc727" d="m200.237 124.68 52.443 15.798 9.901 13.577-33.476-10.084a7.503 7.503 0 0 0-9.345 5.019 7.502 7.502 0 0 0 5.019 9.345l36.745 11.069c3.071-15.49 13.972-27.806 28.337-32.966l.467-25.906a7.502 7.502 0 0 0-7.364-7.634l-.138-.001a7.5 7.5 0 0 0-7.496 7.365l-.63 34.956-9.902-13.578.987-54.762a7.502 7.502 0 0 0-7.364-7.634l-.138-.001a7.5 7.5 0 0 0-7.496 7.365l-.63 34.956-22.023-30.199a7.497 7.497 0 0 0-10.479-1.641 7.5 7.5 0 0 0-1.641 10.479l22.023 30.199-33.476-10.084a7.503 7.503 0 0 0-9.345 5.019 7.504 7.504 0 0 0 5.021 9.343z" opacity="1" data-original="#8bc727" class=""></path>
        <path fill="#fe9901" d="m293.951 191.312.772.94.772-.94c8.476-10.318 20.98-16.236 34.31-16.236 1.799 0 3.644.115 5.484.342l1.39.172-7.583-35.885a45.173 45.173 0 0 0-24.055-6.902c-24.023 0-43.675 18.662-45.281 42.277 13.285.035 25.741 5.945 34.191 16.232z" opacity="1" data-original="#fe9901"></path>
        <path fill="#fb8801" d="M294.724 190.66c.279-.339.571-.667.859-.998a45.423 45.423 0 0 1-1.466-11.459c0-18.97 11.639-35.215 28.163-42.004a45.253 45.253 0 0 0-17.238-3.397c-23.683 0-43.121 18.137-45.205 41.278 14.053.06 26.599 6.501 34.887 16.58z" opacity="1" data-original="#fb8801" class=""></path>
        <path fill="#0ed290" d="M217.075 209.643c9.023-10.98 13.076-24.326 11.867-36.545a1.082 1.082 0 0 0-.964-.964c-4.279-.423-8.697-.2-13.104.653-.876.17-1.55-.755-1.127-1.541 3.816-7.073 5.439-14.786 4.763-22.017a1.08 1.08 0 0 0-.967-.968c-6.994-.654-14.442.834-21.323 4.384a1.067 1.067 0 0 1-1.567-.909c-.607-15.533-7.447-29.166-17.677-37.555a1.078 1.078 0 0 0-1.362 0c-10.23 8.389-17.07 22.022-17.677 37.555a1.067 1.067 0 0 1-1.567.909c-6.882-3.55-14.329-5.038-21.324-4.384-.509.048-.92.459-.967.968-.676 7.231.947 14.944 4.763 22.017.424.786-.25 1.711-1.127 1.541-4.406-.854-8.824-1.076-13.104-.653-.506.05-.914.458-.964.964-1.208 12.219 2.844 25.565 11.868 36.545z" opacity="1" data-original="#0ed290" class=""></path>
        <path fill="#00c285" d="M155.125 209.643c-.438-10.153 1.244-21.357 5.324-32.548 6.795-18.639 18.692-33.056 31.582-40.217-2.97-9.223-8.256-17.121-15.054-22.695a1.078 1.078 0 0 0-1.362 0c-10.23 8.389-17.07 22.022-17.677 37.555a1.067 1.067 0 0 1-1.567.909c-6.882-3.549-14.329-5.038-21.324-4.384-.509.048-.92.459-.967.968-.676 7.231.947 14.944 4.763 22.017.424.786-.25 1.711-1.127 1.541-4.406-.854-8.824-1.076-13.104-.653-.506.05-.914.458-.964.964-1.208 12.218 2.844 25.564 11.868 36.544h19.609z" opacity="1" data-original="#00c285"></path>
        <path fill="#07b27b" d="M183.796 209.643V177.8c0-4.143-3.357-7.5-7.5-7.5s-7.5 3.357-7.5 7.5v31.843z" opacity="1" data-original="#07b27b"></path>
        <path fill="#0ed290" d="M388.929 209.643V2.064c0-1.14-.924-2.064-2.064-2.064h-26.946c-1.14 0-2.063.924-2.063 2.064v207.579z" opacity="1" data-original="#0ed290" class=""></path>
        <path fill="#00c285" d="M372.41 209.643V2.063c0-1.139.924-2.063 2.064-2.063h-14.555c-1.14 0-2.063.924-2.063 2.063v207.579h14.554zM440.762 23.305h-26.854c-.975 0-1.818.683-2.019 1.637l-39.031 184.701h31.073l38.851-183.847a2.065 2.065 0 0 0-2.02-2.491z" opacity="1" data-original="#00c285"></path>
        <path fill="#07b27b" d="M413.907 23.305c-.975 0-1.817.683-2.019 1.637l-39.031 184.701h14.074l39.031-184.701a2.064 2.064 0 0 1 2.019-1.637z" opacity="1" data-original="#07b27b"></path>
        <path fill="#0ed290" d="M342.855 209.643h31.073L334.897 24.942a2.064 2.064 0 0 0-2.019-1.637h-26.855a2.064 2.064 0 0 0-2.019 2.49z" opacity="1" data-original="#0ed290" class=""></path>
        <path fill="#00c285" d="M342.855 209.643h14.868L318.872 25.795a2.064 2.064 0 0 1 2.019-2.49h-14.868a2.064 2.064 0 0 0-2.019 2.49z" opacity="1" data-original="#00c285"></path>
        <path fill="#fedf30" d="M303.962 209.643c-4.495-20.344-22.625-35.566-44.32-35.566-21.696 0-39.826 15.222-44.32 35.566z" opacity="1" data-original="#fedf30" class=""></path>
        <path fill="#fed402" d="M249.864 209.643c3.228-14.607 13.488-26.57 27.052-32.156a45.262 45.262 0 0 0-17.274-3.411c-21.696 0-39.826 15.223-44.32 35.567z" opacity="1" data-original="#fed402" class=""></path>
        <path fill="#e03d9c" d="M374.126 209.643c-4.495-20.344-22.625-35.566-44.32-35.566-21.696 0-39.825 15.222-44.32 35.566z" opacity="1" data-original="#e03d9c"></path>
        <path fill="#c53287" d="M319.917 209.643c3.232-14.626 13.516-26.602 27.107-32.178a45.252 45.252 0 0 0-17.218-3.389c-21.696 0-39.826 15.223-44.32 35.567z" opacity="1" data-original="#c53287" class=""></path>
        <path fill="#ffbd86" d="M375.979 511c-40.697 0-73.808-33.11-73.808-73.808s33.11-73.809 73.808-73.809c8.782 0 17.379 1.528 25.55 4.544l.346.127.346-.127a73.32 73.32 0 0 1 10.894-3.071l.271-1.073V213.802a5.16 5.16 0 0 0-5.159-5.159H125.504a5.16 5.16 0 0 0-5.159 5.159v293.039a5.16 5.16 0 0 0 5.159 5.159h250.475l.252-1z" opacity="1" data-original="#ffbd86" class=""></path>
        <path fill="#f6a96c" d="M181.359 506.841v-293.04a5.16 5.16 0 0 1 5.159-5.159h-61.014a5.16 5.16 0 0 0-5.159 5.159V506.84a5.16 5.16 0 0 0 5.159 5.159h61.014a5.158 5.158 0 0 1-5.159-5.158z" opacity="1" data-original="#f6a96c"></path>
        <path fill="#f6a96c" d="M301.634 445.447H120.345v61.394a5.16 5.16 0 0 0 5.159 5.159h250.475c-38.524 0-70.234-29.124-74.345-66.553z" opacity="1" data-original="#f6a96c"></path>
        <path fill="#ea9b58" d="M181.359 506.841v-61.394h-61.014v61.394a5.16 5.16 0 0 0 5.159 5.159h61.014a5.16 5.16 0 0 1-5.159-5.159z" opacity="1" data-original="#ea9b58"></path>
        <path fill="#07b27b" d="M375.979 363.384c8.782 0 17.379 1.528 25.55 4.544l.346.127.346-.127c8.171-3.016 16.767-4.544 25.549-4.544 4.043 0 8.006.34 11.874.968 15.796-20.558 11.558-41.531 9.328-48.874-.271-.892-1.517-.919-1.821-.037-8.961 25.994-32.06 40.359-47.467 47.317-15.407-6.958-38.507-21.323-47.467-47.317-.304-.882-1.55-.855-1.821.037-2.257 7.43-6.562 28.812 9.901 49.599a73.748 73.748 0 0 1 15.682-1.693z" opacity="1" data-original="#07b27b"></path>
        <path fill="#0ed290" d="M387.45 364.287a73.216 73.216 0 0 1 14.079 3.641l.346.127.346-.127a73.274 73.274 0 0 1 13.113-3.491c10.51-45.618-17.322-64.442-26.181-69.172-.821-.438-1.717.427-1.309 1.264 12.234 25.111 5.664 52.041-.394 67.758z" opacity="1" data-original="#0ed290" class=""></path>
        <path fill="#fb2b3a" d="M427.769 362.384a74.663 74.663 0 0 0-25.895 4.605 74.663 74.663 0 0 0-25.895-4.605c-41.315 0-74.808 33.493-74.808 74.808S334.663 512 375.979 512h51.79c41.315 0 74.808-33.493 74.808-74.808s-33.493-74.808-74.808-74.808z" opacity="1" data-original="#fb2b3a"></path>
        <path fill="#e41f2d" d="M348.716 437.192c0-33.005 21.383-60.997 51.043-70.931a74.68 74.68 0 0 0-23.781-3.877c-41.315 0-74.808 33.493-74.808 74.808S334.663 512 375.978 512h47.545c-41.314 0-74.807-33.493-74.807-74.808z" opacity="1" data-original="#e41f2d"></path>
    </g>
</svg>