<svg xmlns="http://www.w3.org/2000/svg" version="1.1" xmlns:xlink="http://www.w3.org/1999/xlink" width="512" height="512" x="0" y="0" viewBox="0 0 512 512" style="enable-background:new 0 0 512 512" xml:space="preserve" class="">
    <g>
        <path fill="#5d5360" d="M363.355 0h-214.71c-6.014 0-11.659 1.598-16.516 4.406l-7.828 28.626v441.436c0 18.243 14.789 33.032 33.032 33.032h206.021l28.622-12.016a32.892 32.892 0 0 0 4.411-16.516V33.032C396.387 14.789 381.598 0 363.355 0z" opacity="1" data-original="#5d5360"></path>
        <path fill="#4b3f4e" d="M363.355 495.484 132.129 33.032V4.406c-9.832 5.722-16.516 16.43-16.516 28.626v445.936c0 18.243 14.789 33.032 33.032 33.032h214.71c12.196 0 22.9-6.685 28.622-16.516z" opacity="1" data-original="#4b3f4e"></path>
        <path fill="#eceaec" d="M363.355 16.516h-37.493c-5.713 0-11.311 2.786-14.018 7.816-2.788 5.179-8.259 8.7-14.553 8.7H214.71c-6.294 0-11.766-3.521-14.553-8.7-2.708-5.031-8.305-7.816-14.018-7.816h-37.493c-9.122 0-16.516 7.395-16.516 16.516v445.935c0 9.122 7.395 16.516 16.516 16.516h214.71c9.122 0 16.516-7.395 16.516-16.516V33.032c-.001-9.121-7.396-16.516-16.517-16.516z" opacity="1" data-original="#eceaec"></path>
        <path fill="#ffffff" d="M330.323 478.968H297.29L256 470.5l-41.29 8.468h-33.032c-18.243 0-33.032-14.789-33.032-33.032V82.581c0-18.243 14.789-33.032 33.032-33.032h148.645c18.243 0 33.032 14.789 33.032 33.032v363.355c0 18.243-14.789 33.032-33.032 33.032z" opacity="1" data-original="#ffffff" class=""></path>
        <path fill="#ff9a9f" d="M231.226 429.524H190.25c-9.122 0-16.516-7.395-16.516-16.516v-57.911l7.944-16.516h49.548c9.122 0 16.516 7.395 16.516 16.516v66.065z" opacity="1" data-original="#ff9a9f"></path>
        <path fill="#ff8086" d="M181.677 404.645V338.58c-9.121 0-16.516 7.394-16.516 16.516v66.065c0 9.121 7.395 16.516 16.516 16.516h49.548c9.121 0 16.516-7.395 16.516-16.516h-49.548c-9.121 0-16.516-7.394-16.516-16.516z" opacity="1" data-original="#ff8086"></path>
        <path fill="#c3ddff" d="M330.323 297.395h-40.976c-9.122 0-16.516-7.395-16.516-16.516v-57.911l7.944-16.516h49.548c9.122 0 16.516 7.395 16.516 16.516v66.065z" opacity="1" data-original="#c3ddff"></path>
        <path fill="#a4ccff" d="M280.774 272.516v-66.065c-9.121 0-16.516 7.394-16.516 16.516v66.065c0 9.121 7.395 16.516 16.516 16.516h49.548c9.121 0 16.516-7.395 16.516-16.516H297.29c-9.121 0-16.516-7.394-16.516-16.516z" opacity="1" data-original="#a4ccff"></path>
        <path fill="#ffffff" d="M214.71 400.516h-16.516a8.258 8.258 0 0 1-8.258-8.258V384a8.258 8.258 0 0 1 8.258-8.258h16.516a8.258 8.258 0 0 1 8.258 8.258v8.258a8.258 8.258 0 0 1-8.258 8.258z" opacity="1" data-original="#ffffff" class=""></path>
        <path fill="#c8c5c9" d="M297.29 478.968h-82.58c-4.565 0-8.258-3.698-8.258-8.258s3.694-8.258 8.258-8.258h82.581c4.565 0 8.258 3.698 8.258 8.258s-3.694 8.258-8.259 8.258z" opacity="1" data-original="#c8c5c9"></path>
        <path fill="#b3e59f" d="M231.226 165.266H190.25c-9.122 0-16.516-7.395-16.516-16.516V90.839l7.944-16.516h49.548c9.122 0 16.516 7.395 16.516 16.516v66.065z" opacity="1" data-original="#b3e59f"></path>
        <path fill="#ffffff" d="M313.806 247.742h-12.387c-4.565 0-8.258-3.698-8.258-8.258s3.694-8.258 8.258-8.258h12.387c4.565 0 8.258 3.698 8.258 8.258s-3.693 8.258-8.258 8.258zM313.806 280.774h-12.387c-4.565 0-8.258-3.698-8.258-8.258s3.694-8.258 8.258-8.258h12.387a8.256 8.256 0 0 1 8.258 8.258 8.255 8.255 0 0 1-8.258 8.258z" opacity="1" data-original="#ffffff" class=""></path>
        <path fill="#95d6a4" d="M181.677 140.387V74.323c-9.121 0-16.516 7.394-16.516 16.516v66.065c0 9.121 7.395 16.516 16.516 16.516h49.548c9.121 0 16.516-7.395 16.516-16.516h-49.548c-9.121-.001-16.516-7.395-16.516-16.517z" opacity="1" data-original="#95d6a4"></path>
        <path fill="#ffffff" d="M214.71 136.258h-16.516a8.258 8.258 0 0 1-8.258-8.258v-8.258a8.258 8.258 0 0 1 8.258-8.258h16.516a8.258 8.258 0 0 1 8.258 8.258V128a8.258 8.258 0 0 1-8.258 8.258z" opacity="1" data-original="#ffffff" class=""></path>
        <path fill="#ffe07d" d="M330.323 165.266h-40.976c-9.122 0-16.516-7.395-16.516-16.516V90.839l7.944-16.516h49.548c9.122 0 16.516 7.395 16.516 16.516v66.065z" opacity="1" data-original="#ffe07d"></path>
        <path fill="#ffd064" d="M280.774 140.387V74.323c-9.121 0-16.516 7.394-16.516 16.516v66.065c0 9.121 7.395 16.516 16.516 16.516h49.548c9.121 0 16.516-7.395 16.516-16.516H297.29c-9.121-.001-16.516-7.395-16.516-16.517z" opacity="1" data-original="#ffd064" class=""></path>
        <path fill="#ead1ff" d="M231.226 297.395H190.25c-9.122 0-16.516-7.395-16.516-16.516v-57.911l7.944-16.516h49.548c9.122 0 16.516 7.395 16.516 16.516v66.065z" opacity="1" data-original="#ead1ff"></path>
        <path fill="#d6bdef" d="M181.677 272.516v-66.065c-9.121 0-16.516 7.394-16.516 16.516v66.065c0 9.121 7.395 16.516 16.516 16.516h49.548c9.121 0 16.516-7.395 16.516-16.516h-49.548c-9.121 0-16.516-7.394-16.516-16.516z" opacity="1" data-original="#d6bdef"></path>
        <path fill="#e2a975" d="M330.323 429.524h-40.976c-9.122 0-16.516-7.395-16.516-16.516v-57.911l7.944-16.516h49.548c9.122 0 16.516 7.395 16.516 16.516v66.065z" opacity="1" data-original="#e2a975"></path>
        <path fill="#d19a6e" d="M280.774 404.645V338.58c-9.121 0-16.516 7.394-16.516 16.516v66.065c0 9.121 7.395 16.516 16.516 16.516h49.548c9.121 0 16.516-7.395 16.516-16.516H297.29c-9.121 0-16.516-7.394-16.516-16.516z" opacity="1" data-original="#d19a6e"></path>
    </g>
</svg>