<svg xmlns="http://www.w3.org/2000/svg" version="1.1" xmlns:xlink="http://www.w3.org/1999/xlink" width="512" height="512" x="0" y="0" viewBox="0 0 512 512" style="enable-background:new 0 0 512 512" xml:space="preserve" class="">
    <g>
        <path fill="#7e8589" d="M496 433c0 61.856-46.562 63-104 63s-104-1.144-104-63 46.562-161 104-161 104 99.144 104 161z" opacity="1" data-original="#7e8589" class=""></path>
        <path fill="#9aa3a8" d="M472 464a16 16 0 0 1 15.984 16.724C487.6 489.359 480.142 496 471.5 496h-47.446A16.054 16.054 0 0 1 408 479.946v-15.894a.052.052 0 0 0-.053-.052c-8.975-.028-15.54-7.111-15.911-15.994L392 448l-.036.006c-.371 8.883-6.936 15.966-15.911 15.994a.052.052 0 0 0-.053.052v15.894A16.054 16.054 0 0 1 359.946 496H312.5c-8.644 0-16.105-6.641-16.486-15.276A16 16 0 0 1 312 464h7.946a.054.054 0 0 0 .054-.054V320a64 64 0 0 1 64-64h16a64 64 0 0 1 64 64v143.946a.054.054 0 0 0 .054.054z" opacity="1" data-original="#9aa3a8" class=""></path>
        <path fill="#b6b9ba" d="M392 456a8 8 0 0 1-8-8v-32a8 8 0 0 1 16 0v32a8 8 0 0 1-8 8zM336 472h-24a8 8 0 0 1 0-16h24a8 8 0 0 1 0 16z" opacity="1" data-original="#b6b9ba" class=""></path>
        <path fill="#7e8589" d="M416 387.429C416 409.52 405.255 416 392 416s-24-6.48-24-28.571S378.745 336 392 336s24 29.337 24 51.429z" opacity="1" data-original="#7e8589" class=""></path>
        <rect width="160" height="48" x="344" y="448" fill="#b6b9ba" rx="22.883" opacity="1" data-original="#b6b9ba" class=""></rect>
        <path fill="#7e8589" d="M392 448v48h-25.12A22.888 22.888 0 0 1 344 473.12v-2.24A22.888 22.888 0 0 1 366.88 448z" opacity="1" data-original="#7e8589" class=""></path>
        <path fill="#9aa3a8" d="M480 216V113.893a9.883 9.883 0 0 0-15.121-8.376L424 136h-64l-40.879-30.483A9.883 9.883 0 0 0 304 113.893V216z" opacity="1" data-original="#9aa3a8" class=""></path>
        <path fill="#b6b9ba" d="M480 217.455C480 270.474 448.7 280 392 280s-88-9.526-88-62.545S335.3 120 392 120s88 44.435 88 97.455z" opacity="1" data-original="#b6b9ba" class=""></path>
        <path fill="#7e8589" d="M400 120.31V168a8 8 0 0 1-16 0v-47.69q3.915-.315 8-.31t8 .31zM432 128.88V152a8 8 0 0 1-16 0v-29.06a81.931 81.931 0 0 1 16 5.94zM368 122.94V152a8 8 0 0 1-16 0v-23.12a81.931 81.931 0 0 1 16-5.94zM320.009 208a8.032 8.032 0 0 1-1.578-.156l-40-8a8 8 0 1 1 3.138-15.69l40 8a8 8 0 0 1-1.56 15.846zM279.991 248a8 8 0 0 1-1.56-15.846l40-8a8 8 0 1 1 3.138 15.69l-40 8a8.032 8.032 0 0 1-1.578.156zM463.991 208a8 8 0 0 1-1.56-15.846l40-8a8 8 0 1 1 3.138 15.69l-40 8a8.032 8.032 0 0 1-1.578.156zM504.009 248a8.032 8.032 0 0 1-1.578-.156l-40-8a8 8 0 0 1 3.138-15.69l40 8a8 8 0 0 1-1.56 15.846z" opacity="1" data-original="#7e8589" class=""></path>
        <path fill="#8c5237" d="M8 448h144v48H56a48 48 0 0 1-48-48z" opacity="1" data-original="#8c5237" class=""></path>
        <path fill="#b37a60" d="M288 424c0 70.692-53.726 72-120 72s-120-1.308-120-72 53.726-184 120-184 120 113.308 120 184z" opacity="1" data-original="#b37a60" class=""></path>
        <path fill="#d49073" d="M264 464a16 16 0 0 1 0 32h-64a16 16 0 0 1-16-16v-16c-9 0-15.593-7.094-15.964-15.994L168 448l-.036.006C167.593 456.906 161 464 152 464v16a16 16 0 0 1-16 16H72a16 16 0 0 1 0-32h8V288a80 80 0 0 1 80-80h16a80 80 0 0 1 80 80v176z" opacity="1" data-original="#d49073" class=""></path>
        <path fill="#c48669" d="M168 456a8 8 0 0 1-8-8v-56a8 8 0 0 1 16 0v56a8 8 0 0 1-8 8zM104 472H80a8 8 0 0 1 0-16h24a8 8 0 0 1 0 16zM256 472h-24a8 8 0 0 1 0-16h24a8 8 0 0 1 0 16z" opacity="1" data-original="#c48669" class=""></path>
        <path fill="#b37a60" d="M208 360c0 30.928-17.909 40-40 40s-40-9.072-40-40 17.909-72 40-72 40 41.072 40 72z" opacity="1" data-original="#b37a60" class=""></path>
        <path fill="#8c5237" d="M160 32h-54.192C94.721 33.594 86.623 40.54 80 48.1l-41.99 56.34C20.416 136.62 43.559 176 80.068 176H160zM176 32h54.192c11.087 1.594 19.185 8.54 25.808 16.1l41.99 56.34c17.594 32.18-5.549 71.56-42.058 71.56H176z" opacity="1" data-original="#8c5237" class=""></path>
        <path fill="#c48669" d="M168 16c-40 0-56 24-72 72s-24 48-24 80 16 55.711 32 55.711h128c16 0 32-23.711 32-55.711s-8-32-24-80-32-72-72-72z" opacity="1" data-original="#c48669" class=""></path>
        <path fill="#f0c6a4" d="M224 199.711c0 28.719-25.072 24-56 24s-56 4.719-56-24 25.072-80 56-80 56 51.282 56 80z" opacity="1" data-original="#f0c6a4" class=""></path>
        <circle cx="200" cy="95.711" r="8" fill="#8c5237" opacity="1" data-original="#8c5237" class=""></circle>
        <circle cx="136" cy="95.711" r="8" fill="#8c5237" opacity="1" data-original="#8c5237" class=""></circle>
        <path fill="#8c5237" d="M192 184c-14.509 0-15.878-6.656-16-8.166V168a8 8 0 0 0 8-8c0-7.756-5.607-16-16-16s-16 8.244-16 16a8 8 0 0 0 8 8v8a7.689 7.689 0 0 1-1.4 3.2c-2.355 3.14-7.4 4.8-14.6 4.8a8 8 0 0 0 0 16c11.841 0 19.3-3.33 24-7.508 4.7 4.178 12.159 7.508 24 7.508a8 8 0 0 0 0-16zm-16-8v-.135z" opacity="1" data-original="#8c5237" class=""></path>
        <g fill="#7e8589">
            <path d="M424 464a8 8 0 0 0 16 0v-16h-16zM456 448v16a8 8 0 0 0 16 0v-16zM336 344h-16v16h16a8 8 0 0 0 0-16zM336 376h-16v16h16a8 8 0 0 0 0-16zM440 384a8 8 0 0 0 8 8h16v-16h-16a8 8 0 0 0-8 8zM440 352a8 8 0 0 0 8 8h16v-16h-16a8 8 0 0 0-8 8z" fill="#7e8589" opacity="1" data-original="#7e8589" class=""></path>
            <circle cx="432" cy="192" r="8" fill="#7e8589" opacity="1" data-original="#7e8589" class=""></circle>
            <circle cx="352" cy="192" r="8" fill="#7e8589" opacity="1" data-original="#7e8589" class=""></circle>
            <path d="M411.568 240.84c-5.125-2.564-10.751-6.951-11.568-8.991V208a8 8 0 0 0-16 0v23.753c-.781 2.051-6.428 6.5-11.578 9.092a8 8 0 1 0 7.156 14.31 57.8 57.8 0 0 0 12.4-8.325 57.734 57.734 0 0 0 12.47 8.336 8 8 0 0 0 7.125-14.326z" fill="#7e8589" opacity="1" data-original="#7e8589" class=""></path>
            <path d="M392 200c-10.393 0-16 8.244-16 16a8 8 0 0 0 16 .161c0 .023 0 .045.006.065 0-.044 0-.082-.006-.114s0-.074 0-.112a8 8 0 0 0 16 0c0-7.756-5.607-16-16-16z" fill="#7e8589" opacity="1" data-original="#7e8589" class=""></path>
        </g>
    </g>
</svg>