<svg xmlns="http://www.w3.org/2000/svg" version="1.1" xmlns:xlink="http://www.w3.org/1999/xlink" width="512" height="512" x="0" y="0" viewBox="0 0 512 512" style="enable-background:new 0 0 512 512" xml:space="preserve" class="">
    <g>
        <path fill="#ddf5ff" d="M437.074 512H64.52V10.406C64.52 4.66 69.18 0 74.926 0h362.148c5.746 0 10.406 4.66 10.406 10.406v491.188c0 5.746-4.66 10.406-10.406 10.406zm0 0" opacity="1" data-original="#ddf5ff" class=""></path>
        <path fill="#c1e9f4" d="M420.422 0v201.762c0 8.351-9.406 13.383-16.258 8.601-15.168-10.586-33.605-16.8-53.465-16.8-51.644 0-93.66 42.015-93.66 93.66 0 .648.008 1.293.02 1.941.12 5.8-4.594 10.547-10.399 10.547H64.52V512h295.546V389.39c0-4.968 3.508-9.261 8.387-10.202 13-2.508 25.05-7.711 35.547-15.008 6.938-4.82 16.422.004 16.422 8.453V512h16.648c5.75 0 10.407-4.66 10.407-10.406V10.406C447.48 4.66 442.82 0 437.074 0zm0 0" opacity="1" data-original="#c1e9f4" class=""></path>
        <path fill="#ffda88" d="M256 43.707H149.855c-11.496 0-20.816 9.316-20.816 20.813v91.578c0 11.496 9.32 20.812 20.816 20.812h212.29c11.496 0 20.816-9.316 20.816-20.812V64.52c0-11.497-9.32-20.813-20.816-20.813zm0 0" opacity="1" data-original="#ffda88" class=""></path>
        <path fill="#ffcd69" d="M362.145 43.707h-19.77c11.492 0 20.813 9.316 20.813 20.813v91.578c0 11.496-9.32 20.812-20.813 20.812h19.77c11.496 0 20.816-9.316 20.816-20.812V64.52c0-11.493-9.32-20.813-20.816-20.813zm0 0" opacity="1" data-original="#ffcd69" class=""></path>
        <path fill="#abde97" d="M10.406 320.52C4.66 320.52 0 325.18 0 330.926v170.668c0 5.746 4.66 10.402 10.406 10.402h318.442c5.746 0 10.406-4.656 10.406-10.402V320.52zm0 0" opacity="1" data-original="#abde97"></path>
        <path fill="#82cd64" d="M321.563 320.52V512h7.285c5.746 0 10.406-4.66 10.406-10.406V320.52zm0 0" opacity="1" data-original="#82cd64"></path>
        <path fill="#6dc54a" d="M169.625 479.738H67.652c-4.465 0-8.511-2.816-9.855-7.07-2.484-7.863-8-13.875-16.09-16.441-4.36-1.383-7.363-5.372-7.363-9.946v-59.523c0-4.399 2.84-8.203 6.972-9.711 7.825-2.856 13.801-8.95 16.438-16.45 1.441-4.1 5.402-6.777 9.75-6.777h204.05c4.454 0 8.536 2.742 9.962 6.957 2.66 7.852 8.59 13.782 16.437 16.438 4.219 1.43 6.957 5.512 6.957 9.96v59.114c0 4.484-2.836 8.566-7.125 9.875-7.969 2.434-13.86 8.164-16.394 16.277-1.336 4.29-5.172 7.301-9.664 7.301H169.625zm0 0" opacity="1" data-original="#6dc54a"></path>
        <path fill="#5db33a" d="M289.582 389.262c.098.043.195.086.293.125a2.01 2.01 0 0 1 1.242 1.843v51.098c0 .813-.496 1.527-1.242 1.844a38.834 38.834 0 0 0-20.531 20.535c-.32.746-1.035 1.242-1.844 1.242H54.633a27.027 27.027 0 0 1 3.058 6.403c1.43 4.351 5.364 7.39 9.946 7.39h204.09c4.492 0 8.328-3.015 9.664-7.3 2.535-8.114 8.43-13.844 16.394-16.278 4.285-1.309 7.125-5.39 7.125-9.875v-59.113c0-4.45-2.738-8.531-6.957-9.961-7.848-2.656-13.777-8.586-16.437-16.438-1.426-4.215-5.508-6.957-9.961-6.957h-2.711v3.176c0 13.887 8 26.738 20.738 32.266zm0 0" opacity="1" data-original="#5db33a"></path>
        <path fill="#e5646e" d="M423.547 287.219c0 40.234-32.617 72.847-72.848 72.847s-72.847-32.613-72.847-72.847c0-40.23 32.617-72.844 72.847-72.844s72.848 32.613 72.848 72.844zm0 0" opacity="1" data-original="#e5646e"></path>
        <path fill="#e04955" d="M394.988 229.402c9.418 12.274 15.028 27.621 15.028 44.29 0 40.23-32.614 72.847-72.844 72.847-16.668 0-32.016-5.61-44.29-15.027 13.313 17.355 34.255 28.554 57.817 28.554 40.23 0 72.848-32.613 72.848-72.847 0-23.563-11.203-44.504-28.559-57.817zm0 0" opacity="1" data-original="#e04955"></path>
        <path fill="#495959" d="M202.926 68.164H161.3a7.805 7.805 0 1 0 0 15.61h13.008v60.878a7.805 7.805 0 1 0 15.61 0V83.773h13.007a7.805 7.805 0 0 0 7.804-7.804 7.802 7.802 0 0 0-7.804-7.805zM266.406 68.164h-20.812c-10.043 0-18.211 8.168-18.211 18.211v58.273a7.805 7.805 0 1 0 15.61 0v-26.535h26.015v26.535a7.805 7.805 0 0 0 7.805 7.805 7.802 7.802 0 0 0 7.804-7.805V86.375c0-10.043-8.168-18.21-18.21-18.21zm-23.414 34.34V86.375a2.606 2.606 0 0 1 2.602-2.602h20.812a2.603 2.603 0 0 1 2.602 2.602v16.129zM339.012 110.309l18.363-30.297c2.234-3.684 1.055-8.485-2.633-10.719-3.683-2.234-8.484-1.055-10.719 2.629L329.887 95.25l-14.14-23.328a7.804 7.804 0 0 0-13.349 8.09l18.36 30.297-18.36 30.296a7.803 7.803 0 0 0 6.668 11.848 7.793 7.793 0 0 0 6.68-3.758l14.14-23.328 14.137 23.328a7.8 7.8 0 0 0 6.684 3.758 7.754 7.754 0 0 0 4.035-1.129c3.688-2.234 4.867-7.035 2.633-10.719zm0 0" opacity="1" data-original="#495959"></path>
        <path fill="#5db33a" d="M213.258 408.898h-5.395c-3.625-17.789-19.39-31.218-38.238-31.218-18.844 0-34.613 13.43-38.238 31.218h-5.528a7.805 7.805 0 1 0 0 15.61h5.528c3.625 17.793 19.394 31.222 38.238 31.222 18.848 0 34.613-13.43 38.238-31.222h5.395a7.805 7.805 0 1 0 0-15.61zm-43.633 31.22c-12.91 0-23.414-10.505-23.414-23.415s10.504-23.414 23.414-23.414 23.414 10.504 23.414 23.414-10.504 23.414-23.414 23.414zM266.16 408.898h-26.2a7.805 7.805 0 1 0 0 15.61h26.2a7.805 7.805 0 1 0 0-15.61zM99.293 408.898H73.09a7.805 7.805 0 1 0 0 15.61h26.203a7.805 7.805 0 1 0 0-15.61zm0 0" opacity="1" data-original="#5db33a"></path>
        <g fill="#495959">
            <path d="M345.57 266.203v-7.547c0-9.058-7.37-16.426-16.425-16.426-9.06 0-16.43 7.368-16.43 16.426v7.547c0 9.059 7.37 16.426 16.43 16.426 9.054 0 16.425-7.367 16.425-16.426zM372.258 291.809c-9.059 0-16.43 7.37-16.43 16.425v7.547c0 9.059 7.371 16.426 16.43 16.426 9.055 0 16.426-7.367 16.426-16.426v-7.547c0-9.054-7.371-16.425-16.426-16.425zM373.71 243.113a7.807 7.807 0 0 0-10.53 3.313l-38.801 74.367a7.81 7.81 0 0 0 6.914 11.418 7.81 7.81 0 0 0 6.926-4.195l38.8-74.371a7.81 7.81 0 0 0-3.308-10.532zM262.242 226.34H129.04a7.805 7.805 0 1 1 0-15.61h133.203a7.805 7.805 0 1 1 0 15.61zM220.617 296.066H129.04a7.807 7.807 0 0 1 0-15.613h91.578a7.805 7.805 0 0 1 7.805 7.809 7.805 7.805 0 0 1-7.805 7.804zM220.617 261.203H129.04a7.805 7.805 0 1 1 0-15.61h91.578c4.313 0 7.805 3.493 7.805 7.805s-3.492 7.805-7.805 7.805zm0 0" fill="#495959" opacity="1" data-original="#495959"></path>
        </g>
    </g>
</svg>