<svg xmlns="http://www.w3.org/2000/svg" version="1.1" xmlns:xlink="http://www.w3.org/1999/xlink" width="512" height="512" x="0" y="0" viewBox="0 0 426.667 426.667" style="enable-background:new 0 0 512 512" xml:space="preserve" class="">
    <g>
        <path d="M44.577 338.938v27.395c0 10.997 8.915 19.911 19.911 19.911h31.138c10.997 0 19.911-8.915 19.911-19.911v-27.395h-70.96z" style="" fill="#64798a" data-original="#64798a"></path>
        <path d="M258.585 31.325H98.89c-37.533 0-67.958 30.426-67.958 67.958v251.481h285.657V89.328c-.001-32.034-25.969-58.003-58.004-58.003z" style="" fill="#44c4a1" data-original="#44c4a1" class=""></path>
        <path d="M108.245 61.47h141.013v28.203H108.245z" style="" fill="#d5d6db" data-original="#d5d6db"></path>
        <circle cx="99.157" cy="288.299" r="27.294" style="" fill="#fcd462" data-original="#fcd462" class=""></circle>
        <path d="M17.422 143.738C7.801 143.738 0 151.539 0 161.16v45.212c0 9.622 7.801 17.422 17.422 17.422H33.66v-80.057H17.422zM332.826 143.738h-16.238v80.057h16.238c9.622 0 17.422-7.8 17.422-17.422V161.16c.001-9.621-7.799-17.422-17.422-17.422z" style="" fill="#3ea69b" data-original="#3ea69b"></path>
        <path d="M71.868 126.967h210.133v113.715H71.868z" style="" fill="#f6c358" data-original="#f6c358" class=""></path>
        <path d="M71.869 240.686V126.969h210.149z" style="" fill="#fcd462" data-original="#fcd462" class=""></path>
        <path d="M220.156 362.591v14.07c0 10.317 8.364 18.68 18.681 18.68h13.585c10.317 0 18.681-8.364 18.681-18.68v-14.07h-50.947zM344.487 362.591v14.07c0 10.317 8.364 18.68 18.681 18.68h13.585c10.317 0 18.681-8.364 18.681-18.68v-14.07h-50.947z" style="" fill="#64798a" data-original="#64798a"></path>
        <path d="M419.733 290.267H398.92v19.105h20.813a6.933 6.933 0 0 0 6.933-6.933V297.2a6.932 6.932 0 0 0-6.933-6.933zM199.342 290.267a6.933 6.933 0 0 0-6.933 6.933v5.238a6.933 6.933 0 0 0 6.933 6.933h20.814v-19.105h-20.814z" style="" fill="#d15241" data-original="#d15241"></path>
        <path d="M348.059 227.95h-77.497c-29.848 0-54.044 24.197-54.044 54.044v86.055h185.586v-86.055c0-29.848-24.196-54.044-54.045-54.044z" style="" fill="#e56353" data-original="#e56353" class=""></path>
        <path d="M237.137 297.999h144.648s5.902-31.195-22.065-54.626c-2.149-1.8-4.934-2.688-7.737-2.688h-83.607c-3.29 0-6.416 1.301-8.757 3.612-8.482 8.375-27.467 30.203-22.482 53.702z" style="" fill="#2d93ba" data-original="#2d93ba" class=""></path>
        <path d="M176.939 61.47h72.324v28.203h-72.324z" style="" fill="#e1e6e9" data-original="#e1e6e9"></path>
        <path d="M237.137 297.999c-4.985-23.5 14-45.327 22.483-53.702a12.443 12.443 0 0 1 8.757-3.612h83.607c2.803 0 5.588.888 7.737 2.688l-122.584 54.626z" style="" fill="#27a2db" data-original="#27a2db" class=""></path>
        <circle cx="258.304" cy="328.917" r="15.834" style="" fill="#fcd462" data-original="#fcd462" class=""></circle>
        <circle cx="354.133" cy="328.917" r="15.834" style="" fill="#fcd462" data-original="#fcd462" class=""></circle>
    </g>
</svg>